<svg width="16" height="24" viewBox="0 0 16 24" fill="none" xmlns="http://www.w3.org/2000/svg">
<path d="M11.7188 7.8125C12.7548 7.8125 13.7483 7.40095 14.4809 6.66839C15.2135 5.93582 15.625 4.94225 15.625 3.90625C15.625 2.87025 15.2135 1.87668 14.4809 1.14411C13.7483 0.41155 12.7548 0 11.7188 0H3.90625C2.87025 0 1.87668 0.41155 1.14412 1.14411C0.411552 1.87668 1.73607e-06 2.87025 1.73607e-06 3.90625C1.73607e-06 4.94225 0.411552 5.93582 1.14412 6.66839C1.87668 7.40095 2.87025 7.8125 3.90625 7.8125C2.87025 7.8125 1.87668 8.22405 1.14412 8.95661C0.411552 9.68918 1.73607e-06 10.6827 1.73607e-06 11.7188C1.73607e-06 12.7548 0.411552 13.7483 1.14412 14.4809C1.87668 15.2134 2.87025 15.625 3.90625 15.625C3.13367 15.625 2.37844 15.8541 1.73606 16.2833C1.09368 16.7125 0.593002 17.3226 0.297347 18.0364C0.0016925 18.7502 -0.0756643 19.5356 0.0750593 20.2933C0.225783 21.0511 0.597817 21.7471 1.14412 22.2934C1.69041 22.8397 2.38644 23.2117 3.14418 23.3624C3.90192 23.5132 4.68733 23.4358 5.40111 23.1402C6.11488 22.8445 6.72496 22.3438 7.15418 21.7014C7.5834 21.0591 7.8125 20.3038 7.8125 19.5312V7.8125H11.7188Z" fill="#525D7A"/>
<path d="M11.7188 15.625C13.8761 15.625 15.625 13.8761 15.625 11.7188C15.625 9.56139 13.8761 7.8125 11.7188 7.8125C9.56139 7.8125 7.8125 9.56139 7.8125 11.7188C7.8125 13.8761 9.56139 15.625 11.7188 15.625Z" fill="#525D7A"/>
</svg>
