<svg width="25" height="25" viewBox="0 0 25 25" fill="none" xmlns="http://www.w3.org/2000/svg">
<rect width="25" height="25" rx="2" fill="#525D7A"/>
<path d="M10.0258 11.1471H12.2528V18.5588C12.2528 19.2402 12.0994 19.8431 11.7926 20.3676C11.4907 20.8873 11.0626 21.2892 10.5083 21.5735C9.954 21.8578 9.32795 22 8.63013 22C7.4869 22 6.59607 21.7132 5.95764 21.1397C5.31921 20.5613 5 19.7451 5 18.6912H7.24192C7.24192 19.2157 7.35328 19.6029 7.57598 19.8529C7.79869 20.1029 8.15007 20.2279 8.63013 20.2279C9.05575 20.2279 9.39476 20.0833 9.64716 19.7941C9.89956 19.5049 10.0258 19.0931 10.0258 18.5588V11.1471Z" fill="white"/>
<path d="M19.7655 19.0441C19.7655 18.6275 19.617 18.3088 19.3201 18.0882C19.0231 17.8627 18.4886 17.6275 17.7166 17.3824C16.9445 17.1324 16.3333 16.8873 15.883 16.6471C14.6556 15.9902 14.0419 15.1054 14.0419 13.9926C14.0419 13.4142 14.2052 12.8995 14.5319 12.4485C14.8635 11.9926 15.3361 11.6373 15.9498 11.3824C16.5684 11.1275 17.2613 11 18.0284 11C18.8004 11 19.4884 11.1397 20.0921 11.4191C20.6959 11.6936 21.1636 12.0833 21.4952 12.5882C21.8317 13.0931 22 13.6667 22 14.3088H19.7729C19.7729 13.8186 19.617 13.4387 19.3052 13.1691C18.9934 12.8946 18.5555 12.7574 17.9913 12.7574C17.4469 12.7574 17.0237 12.8725 16.7218 13.1029C16.4199 13.3284 16.269 13.6275 16.269 14C16.269 14.348 16.4447 14.6397 16.7961 14.875C17.1524 15.1103 17.6745 15.3309 18.3624 15.5368C19.6294 15.9142 20.5524 16.3824 21.1314 16.9412C21.7105 17.5 22 18.1961 22 19.0294C22 19.9559 21.6461 20.6838 20.9384 21.2132C20.2307 21.7377 19.278 22 18.0803 22C17.2489 22 16.4917 21.8505 15.8087 21.5515C15.1258 21.2475 14.6036 20.8333 14.2424 20.3088C13.886 19.7843 13.7079 19.1765 13.7079 18.4853H15.9424C15.9424 19.6667 16.655 20.2574 18.0803 20.2574C18.6099 20.2574 19.0231 20.152 19.3201 19.9412C19.617 19.7255 19.7655 19.4265 19.7655 19.0441Z" fill="white"/>
</svg>
