<svg width="27" height="25" viewBox="0 0 27 25" fill="none" xmlns="http://www.w3.org/2000/svg">
<path d="M13.5 14.501C12.9885 14.501 12.498 14.2902 12.1363 13.9149C11.7746 13.5397 11.5714 13.0307 11.5714 12.5C11.5714 11.9693 11.7746 11.4603 12.1363 11.0851C12.498 10.7098 12.9885 10.499 13.5 10.499C14.0115 10.499 14.502 10.7098 14.8637 11.0851C15.2254 11.4603 15.4286 11.9693 15.4286 12.5C15.4286 13.0307 15.2254 13.5397 14.8637 13.9149C14.502 14.2902 14.0115 14.501 13.5 14.501ZM12.8211 18.495C13.0461 18.7752 13.2724 19.0473 13.5 19.3074C13.7276 19.0473 13.9539 18.7765 14.1789 18.495C13.7263 18.505 13.2737 18.505 12.8211 18.495ZM10.2561 18.3283C9.26879 18.2217 8.28797 18.0578 7.31829 17.8373C7.22186 18.3042 7.14857 18.7578 7.09971 19.1927C6.85543 21.3044 7.19614 22.5877 7.71429 22.8972C8.23243 23.208 9.47314 22.8719 11.115 21.5979C11.4531 21.3351 11.7939 21.043 12.1359 20.7241C11.4666 19.9626 10.8391 19.1627 10.2561 18.3283ZM19.6817 17.8373C18.7599 18.0508 17.775 18.2162 16.7439 18.3283C16.1609 19.1627 15.5334 19.9626 14.8641 20.7241C15.2061 21.0443 15.5469 21.3351 15.885 21.5979C17.5269 22.8719 18.7676 23.208 19.2857 22.8972C19.8039 22.5877 20.1433 21.3044 19.9016 19.1927C19.8485 18.7377 19.7756 18.2855 19.683 17.8373H19.6817ZM21.546 17.3211C22.2879 20.8415 21.8983 23.6443 20.25 24.6314C18.6017 25.6186 16.0676 24.5674 13.5 22.1408C10.9324 24.5674 8.39829 25.6173 6.75 24.6301C5.10171 23.6429 4.71214 20.8415 5.45271 17.3198C2.14329 16.2272 0 14.4743 0 12.5C0 10.5257 2.14329 8.77413 5.45271 7.67891C4.71214 4.15848 5.10171 1.35574 6.75 0.368575C8.39829 -0.618588 10.9324 0.432607 13.5 2.85916C16.0676 0.432607 18.6017 -0.617253 20.25 0.369909C21.8983 1.35707 22.2879 4.15848 21.5473 7.68025C24.8567 8.77279 27 10.5257 27 12.5C27 14.4743 24.8567 16.2259 21.5473 17.3211H21.546ZM12.1346 4.27587C11.8076 3.96879 11.4674 3.67723 11.115 3.4021C9.47314 2.12812 8.23243 1.79196 7.71429 2.10278C7.19614 2.41227 6.85671 3.69558 7.09843 5.80731C7.14986 6.24352 7.22186 6.69575 7.317 7.16265C8.28711 6.94219 9.26836 6.77829 10.2561 6.67174C10.8669 5.80064 11.4969 4.9989 12.1359 4.27587H12.1346ZM16.7439 6.67174C17.775 6.7838 18.7599 6.95055 19.6817 7.16265C19.7781 6.69575 19.8514 6.24219 19.9003 5.80731C20.1446 3.69558 19.8039 2.41227 19.2857 2.10278C18.7676 1.79196 17.5269 2.12812 15.885 3.4021C15.5322 3.6772 15.1915 3.96876 14.8641 4.27587C15.5031 4.9989 16.1331 5.80064 16.7439 6.67174ZM14.1789 6.50499C13.9539 6.22485 13.7276 5.95271 13.5 5.69258C13.2724 5.95271 13.0461 6.22352 12.8211 6.50499C13.2737 6.49502 13.7263 6.49502 14.1789 6.50499ZM8.83543 16.1071C8.60086 15.7057 8.37452 15.2992 8.15657 14.8879C8.03443 15.2307 7.92129 15.5682 7.81843 15.903C8.14886 15.9777 8.48829 16.0458 8.83414 16.1071H8.83543ZM11.3194 16.4193C12.7711 16.5312 14.2289 16.5312 15.6806 16.4193C16.4998 15.1706 17.2287 13.8606 17.8611 12.5C17.2287 11.1394 16.4998 9.82939 15.6806 8.5807C14.2289 8.46882 12.7711 8.46882 11.3194 8.5807C10.5002 9.82939 9.77131 11.1394 9.13886 12.5C9.77131 13.8606 10.5002 15.1706 11.3194 16.4193ZM18.8434 10.1121C18.9656 9.7693 19.0787 9.43179 19.1816 9.09696C18.8445 9.02107 18.5059 8.95302 18.1659 8.89285C18.4 9.29427 18.6259 9.70078 18.8434 10.1121ZM5.95286 9.61455C5.51571 9.76129 5.10171 9.92137 4.71343 10.0948C2.82986 10.9325 1.92857 11.8797 1.92857 12.5C1.92857 13.1203 2.82857 14.0675 4.71343 14.9052C5.10171 15.0786 5.51571 15.2387 5.95286 15.3854C6.23829 14.4516 6.59186 13.4832 7.01357 12.5C6.60835 11.5595 6.25422 10.5962 5.95286 9.61455ZM7.81714 9.09696C7.92129 9.43046 8.03443 9.76929 8.15657 10.1108C8.37454 9.69989 8.60087 9.29381 8.83543 8.89285C8.48829 8.95422 8.14886 9.02225 7.81843 9.09696H7.81714ZM21.0471 15.3854C21.4843 15.2387 21.8983 15.0786 22.2866 14.9052C24.1701 14.0675 25.0714 13.1203 25.0714 12.5C25.0714 11.8797 24.1714 10.9325 22.2866 10.0948C21.8806 9.91537 21.4671 9.75512 21.0471 9.61455C20.7617 10.5484 20.4081 11.5168 19.9864 12.5C20.4081 13.4832 20.7617 14.4503 21.0471 15.3854ZM19.1829 15.903C19.0787 15.5695 18.9656 15.2307 18.8434 14.8892C18.6255 15.3001 18.3991 15.7062 18.1646 16.1071C18.5117 16.0458 18.8511 15.9777 19.1816 15.903H19.1829Z" fill="#525D7A"/>
</svg>
