<svg width="36" height="25" viewBox="0 0 36 25" fill="none" xmlns="http://www.w3.org/2000/svg">
<path d="M35.9851 17.618C35.8818 16.7714 35.4571 16.037 34.7195 15.4325C34.7104 15.4213 34.7002 15.4108 34.6893 15.4013L34.652 15.3743L34.6401 15.3658L34.2484 15.0817L34.2351 15.0717L34.1852 15.0362C34.1668 15.0254 34.1472 15.0171 34.1268 15.0113C32.8879 14.2663 30.8369 13.7442 27.6988 14.8629C26.95 13.5901 26.8649 12.5702 27.3662 11.0076C27.4555 10.7356 27.3726 10.5559 27.1054 10.4394C26.5682 10.2085 25.8327 10.3265 25.311 10.4657C25.0677 10.5296 24.9215 10.6688 24.8751 10.8797C24.5446 12.4423 23.5841 13.8699 22.6553 15.2479L22.6005 15.3288C22.0281 14.1029 22.147 13.1533 22.5456 11.9636C22.6251 11.7264 22.5625 11.5687 22.3424 11.4508C21.7279 11.1305 20.8061 11.3506 20.4391 11.46C19.9736 11.5971 19.4744 12.8678 18.9168 14.3891C18.7762 14.772 18.6552 15.0994 18.5828 15.2521C18.4105 15.6073 18.246 16.0121 18.0716 16.4418C17.6779 17.4142 17.2342 18.5087 16.6 19.1962C16.3694 18.6813 16.7322 17.8694 17.0845 17.0818C17.5014 16.1506 17.8952 15.2706 17.4416 14.7088C17.3699 14.6199 17.281 14.5469 17.1802 14.4941C17.0795 14.4414 16.9691 14.41 16.8559 14.4019C16.7083 14.3906 16.56 14.4149 16.4235 14.473C16.4706 14.0717 16.4727 13.7549 16.3567 13.3721C16.1908 12.8259 15.7598 12.5197 15.1663 12.5361C13.8149 12.5759 12.6716 13.5929 11.9495 14.4396C11.4686 15.0078 10.4027 15.441 9.4668 15.821C9.09696 15.9794 8.7454 16.1215 8.45219 16.2635C7.98462 15.8644 7.39047 15.4616 6.76469 15.0362C5.00688 13.8444 3.01493 12.4928 2.94602 10.6603C2.84759 7.95347 5.89915 6.03363 8.56258 4.66353C10.5813 3.62655 12.3363 2.93902 13.9281 2.56329C16.1641 2.03556 18.0527 2.1421 19.5405 2.87865C20.3547 3.28136 20.7358 4.15712 20.4939 5.05773C19.8611 7.39804 17.2391 9.00181 14.9969 9.72344C13.6462 10.1581 12.4966 10.3399 11.4813 10.2803C10.2086 10.2057 9.16938 9.56079 8.72501 9.28592C8.65381 9.2368 8.57853 9.19403 8.50001 9.15807L8.47962 9.1531C8.43938 9.14298 8.39716 9.14426 8.35759 9.15679C8.31802 9.16932 8.28264 9.19262 8.25532 9.22413C8.16391 9.33422 8.19626 9.50823 8.2293 9.5963C8.66173 10.7377 9.55469 11.4586 10.8829 11.7392C11.3176 11.8271 11.7601 11.8697 12.2034 11.8663C15.3119 11.8663 19.2782 10.0558 20.7351 8.565C21.7286 7.54933 22.4521 6.50524 22.7516 4.70473C23.0645 2.81898 21.7989 1.50855 20.5094 0.904828C17.3755 -0.556181 13.8163 0.0212619 11.3821 0.762775C8.53446 1.63001 5.58837 3.20679 3.3004 5.0904C0.479463 7.41083 -0.540068 9.56505 0.268525 11.5005C1.09892 13.4843 3.12391 14.7251 5.08212 15.9254C5.71493 16.3125 6.3168 16.6812 6.85891 17.0619C6.69579 17.1421 6.52915 17.2238 6.35969 17.3055C4.71579 18.1102 2.8511 19.0158 1.81681 20.5123C1.06587 21.6026 0.925243 22.6878 1.39915 23.7383C1.65227 24.2973 2.10227 24.6766 2.72735 24.8655C3.05251 24.9586 3.38926 25.0038 3.7272 24.9998C4.9443 24.9998 6.28376 24.5026 7.0129 24.043C8.30102 23.2262 9.13563 22.1296 9.49422 20.7836C9.81344 19.5861 9.7368 18.3964 9.27274 17.3346L10.8513 16.5306C10.0898 19.0875 10.6734 20.6146 11.3146 21.457C11.5509 21.7673 11.977 21.9541 12.453 21.9627C12.929 21.9712 13.367 21.7901 13.6145 21.4818C14.0828 20.8959 14.4288 20.2105 14.7473 19.5251C14.7304 19.9725 14.7515 20.4257 14.9027 20.8099C15.0384 21.1558 15.262 21.3852 15.5502 21.4733C15.8568 21.5678 16.2161 21.4882 16.562 21.2496C18.1209 20.1721 19.1868 17.586 20.0432 15.5071C20.1648 15.2116 20.2816 14.9275 20.3948 14.6619C20.6066 15.4278 20.9014 16.1679 21.2737 16.8687C21.3566 17.0207 21.3496 17.0874 21.2371 17.2124C21.0677 17.4 20.8314 17.6265 20.5811 17.8666C19.8231 18.5932 18.8795 19.5002 18.753 20.2978C18.7038 20.6174 18.9217 20.9086 19.2599 20.9747C20.2773 21.1793 21.5029 20.8802 22.5393 20.1757C23.4815 19.5364 23.8359 18.645 23.594 17.5342C23.3598 16.4645 23.8942 15.1363 25.1823 13.5837C25.3933 14.4737 25.6745 15.1932 26.0627 15.8232L26.0521 15.8317C25.1141 16.6591 23.8288 17.792 24.0285 19.1664C24.0453 19.2971 24.0888 19.4228 24.1564 19.5356C24.2239 19.6483 24.314 19.7456 24.4209 19.8212C24.5351 19.8991 24.664 19.9523 24.7995 19.9775C24.935 20.0027 25.0742 19.9993 25.2084 19.9675C26.4367 19.7069 27.3613 19.182 28.0335 18.3645C28.7057 17.547 28.4603 16.6407 28.2339 15.9375C29.9917 15.456 31.5569 15.468 33.0222 15.973C33.8448 16.2571 34.4348 16.7238 34.7751 17.368C35.2033 18.1784 34.9719 18.9263 34.1219 19.4739C33.861 19.6422 33.7352 19.7452 33.7274 19.8752C33.7257 19.9054 33.7312 19.9355 33.7434 19.9631C33.7557 19.9907 33.7743 20.0148 33.7977 20.0336C33.8962 20.1153 34.1999 20.2573 34.8869 19.8205C35.5197 19.4192 35.8909 18.873 35.9859 18.1869C36.005 17.9978 36.0047 17.8071 35.9851 17.618ZM7.87915 19.3979L7.87212 19.4888C7.76243 20.5287 7.2393 21.4349 6.31469 22.1878C5.73391 22.6609 5.10321 22.9514 4.5393 23.0068C4.14556 23.0451 3.85938 22.9911 3.68923 22.8455C3.56196 22.7369 3.49376 22.5742 3.47829 22.3483C3.36298 20.5386 6.17266 18.7402 7.75399 18.1486C7.86684 18.5546 7.90919 18.9773 7.87915 19.3979ZM15.0756 14.294C14.8155 15.7919 14.0568 18.6195 12.8643 19.7168C12.8073 19.7694 12.7595 19.7878 12.7377 19.7829C12.7159 19.7779 12.6991 19.7516 12.6815 19.7119C12.2835 18.78 12.4305 17.206 13.0331 15.9695C13.4964 15.0163 14.158 14.3849 14.8977 14.1938C14.9284 14.1853 14.9601 14.1807 14.992 14.1803C15.0169 14.1786 15.0416 14.1853 15.0623 14.1995C15.071 14.2134 15.0767 14.229 15.079 14.2453C15.0813 14.2616 15.0801 14.2782 15.0756 14.294ZM20.946 19.7545C20.7217 19.991 20.4145 19.959 20.4869 19.8724L21.6288 18.6479C21.5366 19.0691 21.2645 19.4178 20.946 19.7545ZM25.683 18.6955C25.5744 18.7495 25.4569 18.783 25.3363 18.7942C25.304 18.15 25.922 17.4248 26.5316 16.9411C26.6955 17.613 26.3601 18.3233 25.683 18.6955Z" fill="#525D7A"/>
</svg>
