<svg width="25" height="25" viewBox="0 0 25 25" fill="none" xmlns="http://www.w3.org/2000/svg">
<path d="M24.9897 17.618C24.9179 16.7714 24.623 16.037 24.1108 15.4325C24.1044 15.4212 24.0974 15.4108 24.0898 15.4013V15.4013L24.0639 15.3743L24.0556 15.3658L23.7836 15.0817L23.7744 15.0717L23.7397 15.0362C23.727 15.0254 23.7133 15.0171 23.6992 15.0113C22.8388 14.2663 21.4145 13.7442 19.2353 14.8629C18.7153 13.5901 18.6562 12.5702 19.0043 11.0076C19.0664 10.7356 19.0087 10.5559 18.8232 10.4394C18.4501 10.2085 17.9394 10.3265 17.5771 10.4657C17.4081 10.5296 17.3066 10.6688 17.2744 10.8797C17.0449 12.4423 16.3779 13.8699 15.7329 15.2479L15.6948 15.3288C15.2973 14.1029 15.3798 13.1533 15.6567 11.9636C15.7119 11.7264 15.6684 11.5687 15.5156 11.4508C15.0888 11.1305 14.4487 11.3506 14.1938 11.46C13.8706 11.5971 13.5239 12.8678 13.1367 14.3891C13.039 14.772 12.955 15.0994 12.9047 15.2521C12.7851 15.6073 12.6708 16.0121 12.5498 16.4418C12.2763 17.4142 11.9682 18.5087 11.5278 19.1962C11.3676 18.6813 11.6196 17.8694 11.8642 17.0818C12.1538 16.1506 12.4272 15.2706 12.1123 14.7088C12.0624 14.6199 12.0007 14.5469 11.9307 14.4941C11.8608 14.4414 11.7841 14.41 11.7055 14.4019C11.603 14.3906 11.5 14.4149 11.4052 14.473C11.4379 14.0717 11.4394 13.7549 11.3588 13.3721C11.2436 12.8259 10.9443 12.5197 10.5322 12.5361C9.5937 12.5759 8.79975 13.5929 8.29829 14.4396C7.9643 15.0078 7.22407 15.441 6.57417 15.821C6.31733 15.9794 6.07319 16.1215 5.86958 16.2635C5.54487 15.8644 5.13227 15.4616 4.6977 15.0362C3.477 13.8444 2.0937 12.4928 2.04585 10.6603C1.97749 7.95347 4.09663 6.03363 5.94624 4.66353C7.34809 3.62655 8.56684 2.93902 9.67231 2.56329C11.225 2.03556 12.5366 2.1421 13.5698 2.87865C14.1352 3.28136 14.3998 4.15712 14.2319 5.05773C13.7924 7.39804 11.9716 9.00181 10.4145 9.72344C9.47651 10.1581 8.67817 10.3399 7.97309 10.2803C7.0893 10.2057 6.36763 9.56079 6.05903 9.28592C6.00959 9.2368 5.95731 9.19403 5.90278 9.15807L5.88862 9.1531C5.86068 9.14298 5.83136 9.14426 5.80388 9.15679C5.77641 9.16932 5.75183 9.19262 5.73286 9.22413C5.66938 9.33422 5.69184 9.50823 5.71479 9.5963C6.01509 10.7377 6.6352 11.4586 7.55757 11.7392C7.85943 11.8271 8.16671 11.8697 8.47456 11.8663C10.6332 11.8663 13.3876 10.0558 14.3994 8.565C15.0893 7.54933 15.5917 6.50524 15.7998 4.70473C16.017 2.81898 15.1381 1.50855 14.2426 0.904828C12.0664 -0.556181 9.59467 0.0212619 7.90425 0.762775C5.92671 1.63001 3.88081 3.20679 2.29194 5.0904C0.33296 7.41083 -0.375047 9.56505 0.186476 11.5005C0.763136 13.4843 2.16938 14.7251 3.52925 15.9254C3.9687 16.3125 4.38667 16.6812 4.76313 17.0619C4.64985 17.1421 4.53413 17.2238 4.41645 17.3055C3.27485 18.1102 1.97993 19.0158 1.26167 20.5123C0.740186 21.6026 0.64253 22.6878 0.971632 23.7383C1.14741 24.2973 1.45991 24.6766 1.89399 24.8655C2.1198 24.9586 2.35365 25.0038 2.58833 24.9998C3.43354 24.9998 4.36372 24.5026 4.87007 24.043C5.7646 23.2262 6.34419 22.1296 6.59321 20.7836C6.81489 19.5861 6.76167 18.3964 6.4394 17.3346L7.53559 16.5306C7.00679 19.0875 7.41206 20.6146 7.85737 21.457C8.02143 21.7673 8.31733 21.9541 8.6479 21.9627C8.97846 21.9712 9.28266 21.7901 9.45454 21.4818C9.77973 20.8959 10.02 20.2105 10.2412 19.5251C10.2294 19.9725 10.2441 20.4257 10.3491 20.8099C10.4433 21.1558 10.5986 21.3852 10.7988 21.4733C11.0117 21.5678 11.2612 21.4882 11.5014 21.2496C12.5839 20.1721 13.3242 17.586 13.9189 15.5071C14.0034 15.2116 14.0844 14.9275 14.163 14.6619C14.3102 15.4278 14.5149 16.1679 14.7734 16.8687C14.831 17.0207 14.8261 17.0874 14.748 17.2124C14.6303 17.3999 14.4663 17.6265 14.2924 17.8666C13.7661 18.5932 13.1108 19.5002 13.0229 20.2978C12.9887 20.6174 13.1401 20.9086 13.3749 20.9747C14.0815 21.1793 14.9326 20.8802 15.6523 20.1757C16.3066 19.5364 16.5527 18.645 16.3847 17.5342C16.2221 16.4645 16.5932 15.1363 17.4877 13.5837C17.6342 14.4737 17.8295 15.1932 18.0991 15.8232L18.0917 15.8317C17.4404 16.6591 16.5478 17.792 16.6865 19.1664C16.6981 19.2971 16.7283 19.4228 16.7753 19.5356C16.8222 19.6483 16.8847 19.7456 16.9589 19.8212C17.0382 19.8991 17.1277 19.9523 17.2219 19.9775C17.316 20.0027 17.4126 19.9993 17.5058 19.9675C18.3588 19.7069 19.0009 19.182 19.4677 18.3645C19.9345 17.547 19.7641 16.6407 19.6069 15.9375C20.8276 15.456 21.9145 15.468 22.9321 15.973C23.5034 16.2571 23.913 16.7238 24.1494 17.368C24.4467 18.1784 24.2861 18.9263 23.6957 19.4739C23.5146 19.6422 23.4272 19.7452 23.4218 19.8752C23.4206 19.9054 23.4244 19.9355 23.4329 19.9631C23.4414 19.9907 23.4544 20.0148 23.4706 20.0336C23.539 20.1153 23.7499 20.2573 24.227 19.8205C24.6664 19.4192 24.9243 18.873 24.9902 18.1869C25.0034 17.9978 25.0033 17.8071 24.9897 17.618V17.618ZM5.47163 19.3979L5.46675 19.4888C5.39057 20.5287 5.02729 21.4349 4.3852 22.1878C3.98188 22.6609 3.5439 22.9514 3.15229 23.0068C2.87886 23.0451 2.68013 22.9911 2.56196 22.8455C2.47358 22.7369 2.42622 22.5742 2.41548 22.3483C2.3354 20.5386 4.28657 18.7402 5.38472 18.1486C5.46309 18.5546 5.49249 18.9773 5.47163 19.3979ZM10.4692 14.294C10.2885 15.7919 9.76167 18.6195 8.93354 19.7168C8.89399 19.7694 8.86079 19.7878 8.84565 19.7829C8.83051 19.7779 8.8188 19.7516 8.80659 19.7119C8.53022 18.78 8.63227 17.206 9.05073 15.9695C9.37251 15.0163 9.83198 14.3849 10.3457 14.1938C10.367 14.1853 10.389 14.1807 10.4111 14.1803C10.4284 14.1786 10.4456 14.1853 10.4599 14.1995C10.466 14.2134 10.4699 14.229 10.4715 14.2453C10.4731 14.2616 10.4723 14.2782 10.4692 14.294ZM14.5458 19.7545C14.3901 19.991 14.1767 19.959 14.227 19.8724L15.02 18.6479C14.956 19.0691 14.767 19.4178 14.5458 19.7545ZM17.8354 18.6955C17.76 18.7495 17.6784 18.783 17.5947 18.7942C17.5722 18.15 18.0014 17.4248 18.4247 16.9411C18.5385 17.613 18.3056 18.3233 17.8354 18.6955V18.6955Z" fill="#CE679A"/>
</svg>
